<?xml version="1.0" encoding="UTF-8" standalone="no"?>
<!DOCTYPE svg PUBLIC "-//W3C//DTD SVG 1.1//EN" "http://www.w3.org/Graphics/SVG/1.1/DTD/svg11.dtd">
<svg width="100%" height="100%" viewBox="0 0 1024 1024" version="1.1" xmlns="http://www.w3.org/2000/svg" xmlns:xlink="http://www.w3.org/1999/xlink" xml:space="preserve" xmlns:serif="http://www.serif.com/" style="fill-rule:evenodd;clip-rule:evenodd;stroke-linecap:round;stroke-linejoin:round;stroke-miterlimit:1;">
    <rect x="-19" y="-14" width="1067" height="1087" style="fill:url(#_Linear1);stroke:black;stroke-width:1px;"/>
    <g transform="matrix(0.99375,0,0,0.99375,514.5,484.5)">
        <g transform="matrix(1,0,0,1,-400,-400)">
            <g transform="matrix(6.25,0,0,6.25,0,0)">
                <path d="M118.03,102.32L72.29,123C69.47,124.33 66.53,124.2 63.83,122.64L6.09,93.32C4.44,92.26 3.95,90.71 4.05,89.63C4.15,88.55 4.4,87.38 7.3,86.54L11.58,84.96L69.5,116.53L110.66,99.71L118.03,102.32Z" style="fill:rgb(1,87,155);fill-rule:nonzero;"/>
            </g>
            <g transform="matrix(6.25,0,0,6.25,0,0)">
                <path d="M71.74,119.69C69.421,120.778 66.715,120.681 64.48,119.43L8.11,91.03C7.31,90.59 7.07,89.58 7.55,88.8C8.79,86.75 11.07,80.27 7.31,74.89L70.97,105.54L71.74,119.69Z" style="fill:rgb(245,245,245);fill-rule:nonzero;"/>
            </g>
            <g transform="matrix(6.25,0,0,6.25,0,0)">
                <path d="M115.59,99.98L71.74,119.69C70.29,120.32 67.4,121.44 64.07,119.2C66.7,119.39 68.55,118.3 69.5,116.53C70.43,114.81 70.15,111.99 69.02,110.4C68.33,109.44 66.48,107.91 65.67,107.05L113.1,88.5C117.3,86.77 121.24,89.36 121.87,92.51C122.57,96.07 118.03,98.98 115.59,99.98Z" style="fill:rgb(148,198,214);fill-rule:nonzero;"/>
            </g>
            <g transform="matrix(6.25,0,0,6.25,0,0)">
                <path d="M117.78,86.96L72.51,107.16C69.66,108.29 66.47,108.14 63.74,106.76L5.9,77.38C5.34,77.1 4.51,76.33 4.18,75.28C3.64,73.53 4.32,71.33 6.37,70.63L69.05,102.58L111.97,84.21L117.78,86.96Z" style="fill:rgb(1,87,155);fill-rule:nonzero;"/>
            </g>
            <g transform="matrix(6.25,0,0,6.25,0,0)">
                <path d="M121.19,89.89L116.26,88.1L106.1,88.69L72.52,103.68C69.67,104.81 66.48,104.66 63.75,103.28L5.9,73.91C4.41,73.15 4.73,70.94 6.37,70.63L48.06,51.98C49.25,51.76 50.47,51.89 51.58,52.36L111.07,80.72C111.07,80.72 120.52,87.19 121.19,89.89Z" style="fill:rgb(0,145,234);fill-rule:nonzero;"/>
            </g>
            <g transform="matrix(6.25,0,0,6.25,0,0)">
                <path d="M105.53,88.98C105.53,88.98 111.79,86.53 116.71,86.75C121.63,86.97 123.34,90.42 123.34,90.42C122.41,86.19 118.04,84.03 118.04,84.03L53.04,51.3C52.59,51.11 50.93,50.72 48.38,51.77C46.32,52.62 39.59,55.77 39.59,55.77L105.53,88.98Z" style="fill:rgb(97,97,97);fill-rule:nonzero;"/>
            </g>
            <g transform="matrix(6.25,0,0,6.25,0,0)">
                <path d="M123.62,91.22C123.15,89.35 121.99,87.35 119.85,86.38C117.03,85.11 113.01,85.44 110.44,86.78L105.53,88.96L105.53,92.42L111.74,89.66C117.78,86.97 120.46,91 120.69,91.95C121.65,95.82 119.79,98.06 114.3,100.58L105.38,104.6L105.38,108.08L115.64,103.51C120.18,101.69 125.36,98.27 123.62,91.22Z" style="fill:rgb(66,66,66);fill-rule:nonzero;"/>
            </g>
            <g transform="matrix(6.25,0,0,6.25,0,0)">
                <path d="M33.01,90.31L15.74,66.44L18.45,65.23L37.88,91.93L33.01,90.31Z" style="fill:rgb(1,87,155);fill-rule:nonzero;"/>
            </g>
            <g transform="matrix(6.25,0,0,6.25,0,0)">
                <path d="M55.16,101.31L52.08,98.87L105.53,87.96L105.53,89.71L98.04,92.55L55.16,101.31Z" style="fill:rgb(1,87,155);fill-rule:nonzero;"/>
            </g>
            <g transform="matrix(6.25,0,0,6.25,0,0)">
                <path d="M14.8,46.18L82.31,34.9L111.8,67.37C113.29,68.94 112.48,71.54 110.36,71.97L40.66,86.27L14.8,46.18Z" style="fill:rgb(156,204,101);fill-rule:nonzero;"/>
                <path d="M110.36,69.17L41.14,83.19L40.92,86.49L110.36,72.25C112.32,71.84 113.14,69.6 112.07,68.02C111.69,68.58 111.11,69.02 110.36,69.17Z" style="fill:rgb(104,159,56);fill-rule:nonzero;"/>
                <path d="M114.09,84.3C114.82,85.46 114.16,86.99 112.82,87.26L49.1,100.18C45.27,100.97 41.51,98.46 41.17,94.56C40.88,91.26 43.11,88.27 46.36,87.59L107.64,73.83L114.09,84.3Z" style="fill:rgb(104,159,56);fill-rule:nonzero;"/>
                <path d="M55.59,80.1L30.21,43.78L15.73,47.61C12.38,50.94 13.63,56.41 13.63,56.41C13.63,56.41 35.8,91.99 39.3,96.54C42.8,101.09 47.91,100.38 47.91,100.38L56.54,98.64L55.64,82.54L55.59,80.1Z" style="fill:rgb(97,97,97);fill-rule:nonzero;"/>
                <path d="M55.59,80.34L43.4,82.86C40.07,83.61 39.47,86.74 39.47,86.74L10.04,44.57C10.04,44.57 5.85,49.64 8.63,53.95L39.3,96.54C42.65,101.31 47.91,100.42 47.91,100.42L56.54,98.68L55.65,82.9L55.59,80.34Z" style="fill:rgb(66,66,66);fill-rule:nonzero;"/>
                <path d="M110.25,83C110.56,83.68 110.16,84.47 109.43,84.62L48.5,97.12C44.67,97.91 41.96,95.37 42.1,91.91C42.28,87.54 44.73,85.69 47.97,85.02L109.2,72.51C109.2,72.51 107.12,74.85 108.71,79.23C109.25,80.74 109.83,82.08 110.25,83Z" style="fill:rgb(185,228,234);fill-rule:nonzero;"/>
                <path d="M45.21,83.7L19.1,46.76" style="fill:none;fill-rule:nonzero;stroke:rgb(66,66,66);stroke-width:2.07px;stroke-linecap:butt;stroke-linejoin:miter;stroke-miterlimit:10;"/>
            </g>
            <g transform="matrix(6.25,0,0,6.25,0,0)">
                <path d="M47.26,67.95L13.68,51.03L12.32,53.71L51.12,73.48L47.26,67.95Z" style="fill:rgb(66,66,66);fill-rule:nonzero;"/>
            </g>
            <g transform="matrix(6.25,0,0,6.25,0,0)">
                <path d="M108.79,64.03L106.33,61.33L68.5,78.69L47.26,68.18L50.88,73.36L64.95,80.55L75.43,78.94L108.79,64.03Z" style="fill:rgb(104,159,56);fill-rule:nonzero;"/>
            </g>
            <g transform="matrix(6.25,0,0,6.25,0,0)">
                <path d="M118.02,57.35L72.29,78.03C69.47,79.36 66.53,79.23 63.83,77.67L6.09,48.35C4.44,47.29 3.95,45.74 4.05,44.66C4.15,43.58 4.4,42.41 7.3,41.57L10.01,40.57L69.33,69.68L117.5,49.75L118.02,57.35Z" style="fill:rgb(198,40,40);fill-rule:nonzero;"/>
                <path d="M71.73,74.72C69.411,75.808 66.705,75.711 64.47,74.46L8.1,46.06C7.3,45.62 7.06,44.61 7.54,43.83C8.78,41.78 11.06,35.3 7.3,29.92L69.54,61.58L71.73,74.72Z" style="fill:rgb(245,245,245);fill-rule:nonzero;"/>
                <path d="M115.58,55.01L71.73,74.72C70.28,75.35 67.39,76.47 64.06,74.23C66.69,74.42 68.54,73.33 69.49,71.56C70.42,69.84 70.14,67.02 69.01,65.43C68.32,64.47 66.47,62.94 65.66,62.08L113.09,43.53C117.29,41.8 121.23,44.39 121.86,47.54C122.56,51.1 118.02,54.01 115.58,55.01Z" style="fill:rgb(148,198,214);fill-rule:nonzero;"/>
                <path d="M117.78,41.99L72.51,62.19C69.66,63.32 66.47,63.17 63.74,61.79L5.89,32.41C5.29,32.11 4.39,31.34 4.1,30.25C3.67,28.63 4.23,26.5 6.36,25.66L59.37,14.43L117.78,41.99Z" style="fill:rgb(198,40,40);fill-rule:nonzero;"/>
                <path d="M121.18,44.92L116.25,43.13L106.09,43.72L72.51,58.71C69.66,59.84 66.47,59.69 63.74,58.31L5.89,28.93C4.4,28.17 4.93,26.16 6.36,25.65L48.06,7.01C49.25,6.79 50.47,6.92 51.58,7.39L111.07,35.75C111.07,35.75 120.51,42.21 121.18,44.92Z" style="fill:rgb(244,67,54);fill-rule:nonzero;"/>
                <path d="M105.53,44C105.53,44 110.74,42.17 115.66,42.39C120.58,42.61 123.35,45.44 123.35,45.44C122.34,40.92 118.05,39.05 118.05,39.05L53.05,6.32C52.6,6.13 50.94,5.74 48.39,6.79C46.33,7.64 39.6,10.79 39.6,10.79L105.53,44Z" style="fill:rgb(97,97,97);fill-rule:nonzero;"/>
                <path d="M111.48,41.86L44.97,8.31L47.17,7.32L114.81,41.22L111.48,41.86Z" style="fill:rgb(66,66,66);fill-rule:nonzero;"/>
                <path d="M123.61,46.25C123.14,44.38 122.35,42.57 120.12,41.63C117.27,40.43 114.67,40.18 110.43,41.81L105.52,43.99L105.52,47.45L111.73,44.69C114.88,43.21 119.52,43.53 120.68,46.98C121.95,50.76 119.78,53.09 114.29,55.61L105.37,59.63L105.37,63.11L115.63,58.54C120.18,56.72 125.36,53.3 123.61,46.25Z" style="fill:rgb(66,66,66);fill-rule:nonzero;"/>
            </g>
        </g>
    </g>
    <defs>
        <linearGradient id="_Linear1" x1="0" y1="0" x2="1" y2="0" gradientUnits="userSpaceOnUse" gradientTransform="matrix(0,-1113,1113,0,591,1024)"><stop offset="0" style="stop-color:black;stop-opacity:1"/><stop offset="1" style="stop-color:rgb(77,77,77);stop-opacity:1"/></linearGradient>
    </defs>
</svg>
